<?xml version="1.0" standalone="no"?>
<!DOCTYPE svg PUBLIC "-//W3C//DTD SVG 20010904//EN"
 "http://www.w3.org/TR/2001/REC-SVG-20010904/DTD/svg10.dtd">
<svg version="1.0" xmlns="http://www.w3.org/2000/svg"
 width="700.000000pt" height="700.000000pt" viewBox="0 0 700.000000 700.000000"
 preserveAspectRatio="xMidYMid meet">
<metadata>
Created by potrace 1.11, written by Peter Selinger 2001-2013
</metadata>
<g transform="translate(0.000000,700.000000) scale(0.100000,-0.100000)"
fill="#000000" stroke="none">
<path d="M4596 6837 c-27 -23 -101 -87 -165 -142 -145 -126 -110 -95 -476
-410 -170 -147 -337 -290 -370 -317 -33 -28 -87 -74 -120 -103 -49 -44 -161
-139 -335 -289 -186 -160 -387 -333 -396 -341 -6 -5 -35 -30 -64 -55 -29 -25
-58 -50 -64 -55 -6 -6 -78 -68 -161 -138 -82 -71 -161 -139 -175 -151 -14 -12
-104 -89 -200 -171 -96 -83 -180 -154 -186 -160 -23 -20 -133 -116 -279 -241
-82 -71 -155 -133 -161 -139 -6 -5 -35 -31 -65 -56 -30 -26 -157 -135 -284
-244 -126 -109 -252 -216 -279 -239 -27 -22 -56 -48 -65 -57 -9 -8 -45 -40
-81 -70 -36 -30 -67 -56 -70 -59 -3 -3 -98 -86 -212 -184 -115 -98 -208 -179
-208 -180 0 -1 181 0 402 1 222 1 879 4 1461 7 582 2 1061 6 1063 9 5 4 94
224 339 832 62 154 139 343 170 420 31 77 108 268 171 425 63 157 119 294 124
305 8 17 112 276 262 650 22 55 46 114 53 130 7 17 40 100 75 185 71 179 119
296 131 325 67 159 220 547 217 550 -2 2 -25 -15 -52 -38z"/>
<path d="M5956 3962 c-2 -1 -441 -4 -977 -7 -536 -2 -984 -4 -995 -4 -16 -1
-26 -13 -39 -48 -10 -27 -24 -61 -31 -78 -7 -16 -47 -115 -89 -220 -41 -104
-82 -203 -89 -220 -8 -16 -31 -73 -51 -125 -36 -90 -45 -113 -74 -185 -7 -16
-60 -147 -117 -290 -58 -143 -109 -269 -114 -280 -5 -11 -23 -56 -40 -100 -17
-44 -37 -93 -44 -110 -8 -16 -80 -194 -160 -395 -81 -201 -151 -374 -156 -385
-5 -11 -52 -128 -105 -260 -53 -132 -100 -249 -105 -260 -5 -11 -60 -148 -124
-305 -63 -157 -141 -351 -174 -433 -36 -89 -53 -142 -43 -135 9 7 32 27 51 44
19 18 154 134 300 259 146 125 279 239 295 253 37 33 93 81 170 147 32 28 63
55 69 60 6 6 137 118 291 249 154 132 287 246 296 255 9 9 38 34 64 56 27 22
53 45 59 50 6 6 74 64 151 130 77 66 153 132 170 146 35 31 199 171 235 203
14 11 55 46 90 76 36 30 67 57 70 60 3 3 51 44 106 92 56 48 108 93 115 100 8
7 41 35 74 63 33 27 62 52 65 55 3 3 102 89 220 190 118 101 267 229 330 283
63 55 137 118 163 141 27 22 59 50 71 61 12 11 47 41 77 66 81 70 230 198 264
228 17 14 59 51 95 81 36 30 70 60 76 65 6 6 24 21 40 35 82 70 170 146 180
155 6 5 32 28 59 50 64 54 120 102 173 150 l44 40 -467 0 c-257 0 -468 -1
-469 -3z"/>
</g>
</svg>
